<?xml version="1.0" encoding="iso-8859-1"?>
<!-- Generator: Adobe Illustrator 26.4.1, SVG Export Plug-In . SVG Version: 6.00 Build 0)  -->
<svg version="1.1" baseProfile="basic" id="Layer_1"
	 xmlns="http://www.w3.org/2000/svg" xmlns:xlink="http://www.w3.org/1999/xlink" x="0px" y="0px" viewBox="0 0 40 40"
	 xml:space="preserve">
<linearGradient id="SVGID_1_" gradientUnits="userSpaceOnUse" x1="30" y1="17" x2="44.4083" y2="17">
	<stop  offset="0" style="stop-color:#B2B2B2"/>
	<stop  offset="1" style="stop-color:#000000"/>
</linearGradient>
<polygon style="fill:url(#SVGID_1_);" points="30,19 38.731,19 40,15 34,15 "/>
<linearGradient id="SVGID_00000059299187372348063750000009275018568054998457_" gradientUnits="userSpaceOnUse" x1="32.0138" y1="26.1444" x2="32.191" y2="40.8503">
	<stop  offset="0" style="stop-color:#B2B2B2"/>
	<stop  offset="1" style="stop-color:#000000"/>
</linearGradient>
<polygon style="fill:url(#SVGID_00000059299187372348063750000009275018568054998457_);" points="30,19 30,35 34,31 34,15 "/>
<linearGradient id="SVGID_00000052093239024534728510000002780233926538401951_" gradientUnits="userSpaceOnUse" x1="0.2128" y1="17" x2="12.6294" y2="17">
	<stop  offset="0" style="stop-color:#B2B2B2"/>
	<stop  offset="1" style="stop-color:#000000"/>
</linearGradient>
<polygon style="fill:url(#SVGID_00000052093239024534728510000002780233926538401951_);" points="10,19 1.269,19 0,15 6,15 "/>
<linearGradient id="SVGID_00000093889037045984708080000001811461479999026360_" gradientUnits="userSpaceOnUse" x1="8" y1="27.5633" x2="8" y2="39.4505">
	<stop  offset="0" style="stop-color:#B2B2B2"/>
	<stop  offset="1" style="stop-color:#000000"/>
</linearGradient>
<polygon style="fill:url(#SVGID_00000093889037045984708080000001811461479999026360_);" points="10,19 10,35 6,31 6,15 "/>
<linearGradient id="SVGID_00000138541683987128663890000010715305736292447111_" gradientUnits="userSpaceOnUse" x1="25.9206" y1="8.0931" x2="17.8022" y2="2.5976">
	<stop  offset="0" style="stop-color:#B2B2B2"/>
	<stop  offset="1" style="stop-color:#000000"/>
</linearGradient>
<polygon style="fill:url(#SVGID_00000138541683987128663890000010715305736292447111_);" points="39.985,15.047 24.489,5 17.559,5 
	38.698,19.007 "/>
<linearGradient id="SVGID_00000147909270934900402840000014833280384078793370_" gradientUnits="userSpaceOnUse" x1="10.9149" y1="33" x2="20.9547" y2="33">
	<stop  offset="0" style="stop-color:#B2B2B2"/>
	<stop  offset="1" style="stop-color:#000000"/>
</linearGradient>
<polygon style="fill:url(#SVGID_00000147909270934900402840000014833280384078793370_);" points="18,31 6,31 10,35 14,35 "/>
<linearGradient id="SVGID_00000111907702220730099040000011242862129849377667_" gradientUnits="userSpaceOnUse" x1="16" y1="26.7447" x2="16" y2="20.1061">
	<stop  offset="0" style="stop-color:#B2B2B2"/>
	<stop  offset="1" style="stop-color:#000000"/>
</linearGradient>
<polygon style="fill:url(#SVGID_00000111907702220730099040000011242862129849377667_);" points="14,35 14,24 18,20 18,31 "/>
<polygon style="fill:#B2B2B2;" points="14,24 24,24 24,20 18,20 "/>
<polygon style="fill:#B2B2B2;" points="0.053,15.047 17.56,5 24.479,5 1.34,19.007 "/>
<polygon style="fill:#B2B2B2;" points="21,31 34,31 30,35 21,35 "/>
</svg>